<svg width="48" height="48" viewBox="0 0 48 48" fill="none" xmlns="http://www.w3.org/2000/svg">
<path d="M35.5802 22.4259L35.2819 16.7581L32.2193 17.832C28.3811 14.9483 22.8722 15.2466 19.372 18.7469L13.4057 22.7243L20.5454 25.5284L23.3494 22.7243C24.6421 21.4316 26.5911 21.1532 28.1424 21.9089L27.327 24.713L29.3157 28.6905L16.8224 41.1438C15.1719 42.7943 12.5069 42.7944 10.8562 41.1438C9.20554 39.4931 9.20563 36.8281 10.8562 35.1775L16.4684 29.6052L17.3832 26.7018L13.1074 25.0113L6.87866 31.2001C3.04045 35.0383 3.04045 41.283 6.87866 45.1212C10.7169 48.9594 16.9616 48.9594 20.7998 45.1212L33.293 32.6679C36.0575 29.9036 36.8332 25.8663 35.5802 22.4259Z" fill="#797981"/>
<path d="M29.3158 28.6905L16.8226 41.1438C15.172 42.7943 12.5071 42.7944 10.8563 41.1438L6.87891 45.1212C10.7171 48.9594 16.9618 48.9594 20.8 45.1212L33.2933 32.6679C36.0577 29.9035 36.8333 25.8664 35.5804 22.4258L35.2821 16.758L27.3271 24.713L29.3158 28.6905Z" fill="#44444A"/>
<path d="M33.293 18.7468C34.3669 19.8207 35.1425 21.0736 35.5801 22.4259L41.2463 16.7998C45.0845 12.9616 45.0845 6.71688 41.2463 2.87866C37.4081 -0.959555 31.1634 -0.959555 27.3252 2.87866L15.3944 14.7694C12.63 17.5338 11.8545 21.5708 13.1075 25.0113C13.5449 26.3637 14.3206 27.6167 15.3944 28.6905C15.7325 29.0285 16.0905 29.3468 16.4684 29.6052C20.3067 32.4889 25.8154 32.1906 29.3156 28.6905C30.9662 27.0398 30.9662 24.375 29.3156 22.7242C28.9576 22.3663 28.5797 22.1076 28.1423 21.9088L25.3381 24.7129C24.0455 26.0056 22.0966 26.284 20.5454 25.5283C20.1079 25.3295 19.7299 25.0709 19.372 24.7129C17.7213 23.0623 17.7214 20.3973 19.372 18.7467L31.3026 6.85601C32.9533 5.20535 35.6181 5.20535 37.2689 6.85601C38.9195 8.50667 38.9195 11.1715 37.2689 12.8223L32.2192 17.8319C32.5969 18.0904 32.955 18.4087 33.293 18.7468Z" fill="#FFCCAB"/>
<path d="M29.3156 28.6905C30.9662 27.0398 30.9662 24.375 29.3156 22.7243C28.9576 22.3663 28.5797 22.1077 28.1423 21.9088L25.3381 24.713C24.0455 26.0056 22.0966 26.284 20.5453 25.5283C20.1079 25.3295 19.7299 25.0709 19.372 24.713L15.3945 28.6904C15.7326 29.0285 16.0906 29.3467 16.4685 29.6051C20.3067 32.489 25.8154 32.1907 29.3156 28.6905Z" fill="#FF9149"/>
<path d="M37.2689 12.8223L32.2192 17.8319C32.597 18.0904 32.9551 18.4087 33.2931 18.7468C34.367 19.8207 35.1426 21.0736 35.5803 22.4259L41.2464 16.7998C45.0846 12.9616 45.0846 6.71688 41.2464 2.87866L37.269 6.8561C38.9195 8.50676 38.9195 11.1716 37.2689 12.8223Z" fill="#FF9149"/>
</svg>
