<svg width="24" height="24" viewBox="0 0 24 24" fill="#FFF" xmlns="http://www.w3.org/2000/svg">
<path fill-rule="evenodd" clip-rule="evenodd" d="M14.6087 2.6087C14.6087 1.16795 13.4407 0 12 0C10.5593 0 9.3913 1.16795 9.3913 2.6087C9.3913 4.04944 10.5593 5.21739 12 5.21739C13.4407 5.21739 14.6087 4.04944 14.6087 2.6087ZM2.6087 14.6087C4.04944 14.6087 5.21739 13.4407 5.21739 12C5.21739 10.5593 4.04944 9.3913 2.6087 9.3913C1.16795 9.3913 0 10.5593 0 12C0 13.4407 1.16795 14.6087 2.6087 14.6087ZM14.6087 21.3913C14.6087 19.9506 13.4407 18.7826 12 18.7826C10.5593 18.7826 9.3913 19.9506 9.3913 21.3913C9.3913 22.832 10.5593 24 12 24C13.4407 24 14.6087 22.832 14.6087 21.3913ZM16.7963 16.7959C17.8151 15.7772 19.4668 15.7772 20.4856 16.7959C21.5044 17.8147 21.5044 19.4664 20.4856 20.4852C19.4668 21.504 17.8151 21.504 16.7963 20.4852C15.7776 19.4664 15.7776 17.8147 16.7963 16.7959ZM7.20406 20.4853C8.22281 19.4666 8.22281 17.8148 7.20406 16.7961C6.1853 15.7773 4.53356 15.7773 3.5148 16.7961C2.49604 17.8148 2.49604 19.4666 3.5148 20.4853C4.53356 21.5041 6.1853 21.5041 7.20406 20.4853ZM24 12C24 13.4407 22.832 14.6087 21.3913 14.6087C19.9506 14.6087 18.7826 13.4407 18.7826 12C18.7826 10.5593 19.9506 9.3913 21.3913 9.3913C22.832 9.3913 24 10.5593 24 12ZM3.51441 3.51478C4.53317 2.49602 6.1849 2.49602 7.20366 3.51478C8.22242 4.53354 8.22242 6.18527 7.20366 7.20403C6.1849 8.22279 4.53317 8.22279 3.51441 7.20403C2.49565 6.18527 2.49565 4.53354 3.51441 3.51478ZM20.485 7.20392C21.5037 6.18516 21.5037 4.53342 20.485 3.51466C19.4662 2.4959 17.8145 2.4959 16.7957 3.51466C15.777 4.53342 15.777 6.18516 16.7957 7.20392C17.8145 8.22268 19.4662 8.22268 20.485 7.20392Z" fill="black"/>
</svg>
