<svg width="36" height="36" viewBox="0 0 36 36" fill="none" xmlns="http://www.w3.org/2000/svg">
<rect width="36" height="36" rx="9" fill="#17171A"/>
<path d="M22.3191 17.4098L22.2073 15.2843L21.0588 15.6871C19.6195 14.6057 17.5536 14.7176 16.2411 16.0301L14.0037 17.5217L16.6811 18.5732L17.7326 17.5217C18.2174 17.0369 18.9482 16.9325 19.53 17.2159L19.2242 18.2675L19.9699 19.759L15.285 24.429C14.666 25.0479 13.6667 25.048 13.0476 24.429C12.4286 23.81 12.4287 22.8106 13.0476 22.1916L15.1522 20.102L15.4952 19.0132L13.8918 18.3793L11.5561 20.7001C10.1167 22.1394 10.1167 24.4812 11.5561 25.9205C12.9954 27.3598 15.3372 27.3598 16.7765 25.9205L21.4614 21.2505C22.4981 20.2139 22.789 18.6999 22.3191 17.4098Z" fill="#797981"/>
<path d="M19.97 19.759L15.285 24.429C14.6661 25.0479 13.6667 25.048 13.0477 24.429L11.5562 25.9205C12.9955 27.3598 15.3372 27.3598 16.7766 25.9205L21.4615 21.2505C22.4982 20.2139 22.789 18.6999 22.3192 17.4097L22.2073 15.2843L19.2242 18.2674L19.97 19.759Z" fill="#44444A"/>
<path d="M21.4615 16.0301C21.8642 16.4328 22.1551 16.9027 22.3192 17.4098L24.444 15.3C25.8833 13.8607 25.8833 11.5189 24.444 10.0796C23.0047 8.64023 20.6629 8.64023 19.2236 10.0796L14.7495 14.5386C13.7129 15.5752 13.4221 17.0891 13.8919 18.3793C14.056 18.8864 14.3469 19.3563 14.7495 19.759C14.8763 19.8858 15.0106 20.0051 15.1523 20.102C16.5916 21.1834 18.6574 21.0715 19.97 19.759C20.589 19.14 20.589 18.1407 19.97 17.5216C19.8357 17.3874 19.694 17.2904 19.53 17.2159L18.4784 18.2674C17.9937 18.7522 17.2629 18.8566 16.6811 18.5732C16.5171 18.4986 16.3753 18.4016 16.2411 18.2674C15.6221 17.6484 15.6222 16.649 16.2411 16.0301L20.7151 11.5711C21.3341 10.9521 22.3334 10.9521 22.9524 11.5711C23.5714 12.1901 23.5714 13.1894 22.9524 13.8084L21.0588 15.687C21.2005 15.784 21.3348 15.9033 21.4615 16.0301Z" fill="#FFCCAB"/>
<path d="M19.9699 19.759C20.5889 19.14 20.5889 18.1407 19.9699 17.5217C19.8357 17.3874 19.694 17.2904 19.5299 17.2159L18.4784 18.2674C17.9936 18.7522 17.2628 18.8566 16.6811 18.5732C16.517 18.4986 16.3753 18.4017 16.2411 18.2674L14.7495 19.759C14.8763 19.8858 15.0105 20.0051 15.1523 20.102C16.5916 21.1834 18.6573 21.0716 19.9699 19.759Z" fill="#FF9149"/>
<path d="M22.9522 13.8084L21.0586 15.687C21.2002 15.784 21.3345 15.9034 21.4613 16.0301C21.864 16.4329 22.1549 16.9027 22.319 17.4098L24.4438 15.3C25.8831 13.8607 25.8831 11.5189 24.4438 10.0796L22.9522 11.5711C23.5712 12.1901 23.5712 13.1894 22.9522 13.8084Z" fill="#FF9149"/>
</svg>
