<svg width="48" height="48" viewBox="0 0 48 48" fill="none" xmlns="http://www.w3.org/2000/svg">
<g clip-path="url(#clip0)">
<path d="M46.8674 17.6492L31.3201 16.2072L25.1442 1.8664C24.7118 0.862243 23.288 0.862243 22.8557 1.8664L16.6799 16.2073L1.13252 17.6492C0.0439013 17.7501 -0.396067 19.1042 0.425276 19.8257L12.1558 30.1308L8.72289 45.3629C8.48251 46.4294 9.63432 47.2662 10.5744 46.7081L24 38.7361L37.4256 46.7081C38.3656 47.2662 39.5175 46.4294 39.2772 45.3629L35.8442 30.1308L47.5747 19.8257C48.396 19.1042 47.9561 17.7501 46.8674 17.6492Z" fill="#FFCCAB"/>
<path d="M25.1442 1.8664C24.7118 0.862243 23.288 0.862243 22.8557 1.8664L16.6799 16.2073L1.13252 17.6492C0.0439013 17.7501 -0.396066 19.1042 0.425276 19.8257L12.1558 30.1308L8.72289 45.3629C8.48251 46.4294 9.63432 47.2662 10.5744 46.7081L13.5709 44.9288C13.9856 27.8568 21.9178 15.8347 28.1979 8.95726L25.1442 1.8664Z" fill="#FF9149"/>
</g>
<defs>
<clipPath id="clip0">
<rect width="48" height="48" fill="white"/>
</clipPath>
</defs>
</svg>
